# xmcd
#
# Track frame offsets:
# 195
# 15120
# 28982
# 47935
# 65770
# 83982
# 100750
# 113282
# 129662
# 147425
# 164220
# 181032
#
# Disc length: 2681 seconds
#
#
# Revision: 2
# Processed by: cddbd v1.5PL3 Copyright (c) Steve Scherf et al.
# Submitted via: FreeRIP 2.60 
#
DISCID=a00a770c
DTITLE=Freddie King - The Best of Freddie King
DYEAR=1900
DGENRE=Blues
TTITLE0=Going Down
TTITLE1=Lowdown in Lodi
TTITLE2=Living on the Highway
TTITLE3=Reconsider Baby
TTITLE4=Me and My Guitar
TTITLE5=Boogie Man
TTITLE6=Woman Across the River
TTITLE7=Palace of the King
TTITLE8=Same Old Blues
TTITLE9=I'd Rather Be Blind
TTITLE10=I'm Ready
TTITLE11=Help Me Through the Day
EXTD=
EXTT0=
EXTT1=
EXTT2=
EXTT3=
EXTT4=
EXTT5=
EXTT6=
EXTT7=
EXTT8=
EXTT9=
EXTT10=
EXTT11=
PLAYORDER=
